<svg viewBox="0 0 120 108" xmlns="http://www.w3.org/2000/svg" role="img" aria-label="HeartSync logo">
    <defs>
        <linearGradient id="hsMarkGrad" x1="0%" y1="0%" x2="100%" y2="100%">
            <stop offset="0%" stop-color="#ff4b72"/>
            <stop offset="100%" stop-color="#6c5ce7"/>
        </linearGradient>
        <clipPath id="hsMarkClip">
            <path d="M60,100 C25,72 4,48 4,26 C4,10 17,0 33,0 C45,0 55,7 60,17 C65,7 75,0 87,0 C103,0 116,10 116,26 C116,48 95,72 60,100 Z"/>
        </clipPath>
    </defs>
    <path d="M60,100 C25,72 4,48 4,26 C4,10 17,0 33,0 C45,0 55,7 60,17 C65,7 75,0 87,0 C103,0 116,10 116,26 C116,48 95,72 60,100 Z" fill="url(#hsMarkGrad)"/>
    <polyline points="2,50 34,50 47,20 61,84 74,42 85,50 118,50" fill="none" stroke="#ffffff" stroke-width="7" stroke-linecap="round" stroke-linejoin="round" clip-path="url(#hsMarkClip)"/>
</svg>
